<svg id="visual" viewBox="0 0 1920 1080" width="1920" height="1080" xmlns="http://www.w3.org/2000/svg" xmlns:xlink="http://www.w3.org/1999/xlink" version="1.1">
    <path d="M1420 1080L1448.8 1054.3C1477.7 1028.7 1535.3 977.3 1573.7 925.8C1612 874.3 1631 822.7 1611.7 771.2C1592.3 719.7 1534.7 668.3 1505.8 617C1477 565.7 1477 514.3 1512.3 463C1547.7 411.7 1618.3 360.3 1628 308.8C1637.7 257.3 1586.3 205.7 1579.8 154.2C1573.3 102.7 1611.7 51.3 1630.8 25.7L1650 0L1920 0L1920 25.7C1920 51.3 1920 102.7 1920 154.2C1920 205.7 1920 257.3 1920 308.8C1920 360.3 1920 411.7 1920 463C1920 514.3 1920 565.7 1920 617C1920 668.3 1920 719.7 1920 771.2C1920 822.7 1920 874.3 1920 925.8C1920 977.3 1920 1028.7 1920 1054.3L1920 1080Z" fill="#494949"></path>
    <path d="M1266 1080L1291.7 1054.3C1317.3 1028.7 1368.7 977.3 1410.3 925.8C1452 874.3 1484 822.7 1464.8 771.2C1445.7 719.7 1375.3 668.3 1324.2 617C1273 565.7 1241 514.3 1253.7 463C1266.3 411.7 1323.7 360.3 1339.7 308.8C1355.7 257.3 1330.3 205.7 1346.3 154.2C1362.3 102.7 1419.7 51.3 1448.3 25.7L1477 0L1651 0L1631.8 25.7C1612.7 51.3 1574.3 102.7 1580.8 154.2C1587.3 205.7 1638.7 257.3 1629 308.8C1619.3 360.3 1548.7 411.7 1513.3 463C1478 514.3 1478 565.7 1506.8 617C1535.7 668.3 1593.3 719.7 1612.7 771.2C1632 822.7 1613 874.3 1574.7 925.8C1536.3 977.3 1478.7 1028.7 1449.8 1054.3L1421 1080Z" fill="#5d5d5d"></path>
    <path d="M1074 1080L1096.5 1054.3C1119 1028.7 1164 977.3 1196 925.8C1228 874.3 1247 822.7 1231 771.2C1215 719.7 1164 668.3 1100 617C1036 565.7 959 514.3 946.2 463C933.3 411.7 984.7 360.3 1013.5 308.8C1042.3 257.3 1048.7 205.7 1061.5 154.2C1074.3 102.7 1093.7 51.3 1103.3 25.7L1113 0L1478 0L1449.3 25.7C1420.7 51.3 1363.3 102.7 1347.3 154.2C1331.3 205.7 1356.7 257.3 1340.7 308.8C1324.7 360.3 1267.3 411.7 1254.7 463C1242 514.3 1274 565.7 1325.2 617C1376.3 668.3 1446.7 719.7 1465.8 771.2C1485 822.7 1453 874.3 1411.3 925.8C1369.7 977.3 1318.3 1028.7 1292.7 1054.3L1267 1080Z" fill="#6a6a6a"></path>
    <path class="kisi-arka-plan-animasyon" d="M517 1080L549 1054.3C581 1028.7 645 977.3 667.5 925.8C690 874.3 671 822.7 642.3 771.2C613.7 719.7 575.3 668.3 514.5 617C453.7 565.7 370.3 514.3 341.5 463C312.7 411.7 338.3 360.3 354.3 308.8C370.3 257.3 376.7 205.7 373.5 154.2C370.3 102.7 357.7 51.3 351.3 25.7L345 0L1114 0L1104.3 25.7C1094.7 51.3 1075.3 102.7 1062.5 154.2C1049.7 205.7 1043.3 257.3 1014.5 308.8C985.7 360.3 934.3 411.7 947.2 463C960 514.3 1037 565.7 1101 617C1165 668.3 1216 719.7 1232 771.2C1248 822.7 1229 874.3 1197 925.8C1165 977.3 1120 1028.7 1097.5 1054.3L1075 1080Z" fill="#5d5d5d"></path>
    <path d="M0 1080L0 1054.3C0 1028.7 0 977.3 0 925.8C0 874.3 0 822.7 0 771.2C0 719.7 0 668.3 0 617C0 565.7 0 514.3 0 463C0 411.7 0 360.3 0 308.8C0 257.3 0 205.7 0 154.2C0 102.7 0 51.3 0 25.7L0 0L346 0L352.3 25.7C358.7 51.3 371.3 102.7 374.5 154.2C377.7 205.7 371.3 257.3 355.3 308.8C339.3 360.3 313.7 411.7 342.5 463C371.3 514.3 454.7 565.7 515.5 617C576.3 668.3 614.7 719.7 643.3 771.2C672 822.7 691 874.3 668.5 925.8C646 977.3 582 1028.7 550 1054.3L518 1080Z" fill="#494949"></path>
</svg>